<?xml version="1.0" standalone="no"?>
<!DOCTYPE svg PUBLIC "-//W3C//DTD SVG 20010904//EN"
 "http://www.w3.org/TR/2001/REC-SVG-20010904/DTD/svg10.dtd">
<svg version="1.0" xmlns="http://www.w3.org/2000/svg"
 width="109.000000pt" height="109.000000pt" viewBox="0 0 109.000000 109.000000"
 preserveAspectRatio="xMidYMid meet">

<g transform="translate(0.000000,109.000000) scale(0.100000,-0.100000)"
fill="#000000" stroke="none">
<path d="M416 1074 c-334 -81 -513 -465 -358 -770 168 -332 595 -406 862 -148
224 216 225 561 1 777 -138 133 -323 185 -505 141z m-59 -363 c80 -80 118
-101 188 -101 70 0 108 21 186 100 121 125 139 104 139 -164 0 -185 -8 -218
-50 -224 -41 -6 -50 20 -50 146 l0 114 -39 -31 c-120 -96 -263 -94 -378 3
l-33 28 0 -113 c0 -119 -10 -149 -51 -149 -42 0 -49 34 -49 227 0 188 6 228
37 236 10 3 19 5 20 6 1 0 37 -35 80 -78z m218 -295 c37 -27 15 -106 -30 -106
-25 0 -48 28 -48 58 0 55 37 78 78 48z"/>
</g>
</svg>
